<svg width="21" height="20" viewBox="0 0 21 20" fill="none" xmlns="http://www.w3.org/2000/svg">
<path d="M20.8619 18.2399C19.5289 15.9302 17.4474 14.1306 14.9525 13.1307C16.1932 12.212 17.1096 10.9313 17.5721 9.46989C18.0345 8.00847 18.0194 6.44047 17.529 4.98799C17.0386 3.5355 16.0976 2.27217 14.8395 1.37695C13.5814 0.48173 12.0698 0 10.5189 0C8.96808 0 7.45652 0.48173 6.19839 1.37695C4.94026 2.27217 3.99934 3.5355 3.50891 4.98799C3.01848 6.44047 3.00341 8.00847 3.46583 9.46989C3.92825 10.9313 4.84471 12.212 6.08541 13.1307C3.5905 14.1306 1.50899 15.9302 0.17597 18.2399C0.0933714 18.371 0.0383197 18.5172 0.0140878 18.6697C-0.010144 18.8223 -0.00306138 18.9781 0.0349148 19.1279C0.072891 19.2776 0.140985 19.4184 0.23515 19.5416C0.329314 19.6649 0.447627 19.7683 0.583053 19.8455C0.718479 19.9228 0.868254 19.9723 1.02348 19.9913C1.1787 20.0102 1.33619 19.9982 1.4866 19.9559C1.63702 19.9135 1.77727 19.8418 1.89903 19.7449C2.02079 19.6479 2.12156 19.5278 2.19537 19.3917C3.95712 16.3855 7.06837 14.5925 10.5189 14.5925C13.9695 14.5925 17.0808 16.3864 18.8425 19.3917C19.0025 19.6456 19.2562 19.8282 19.55 19.9008C19.8438 19.9734 20.1547 19.9303 20.4169 19.7808C20.6792 19.6312 20.8723 19.3868 20.9553 19.0992C21.0383 18.8117 21.0049 18.5035 20.8619 18.2399ZM5.46316 7.29769C5.46316 6.31053 5.75968 5.34553 6.31521 4.52474C6.87075 3.70394 7.66036 3.06421 8.58418 2.68644C9.50801 2.30866 10.5246 2.20982 11.5053 2.40241C12.486 2.59499 13.3869 3.07036 14.0939 3.76839C14.801 4.46642 15.2825 5.35576 15.4776 6.32396C15.6727 7.29215 15.5725 8.29571 15.1899 9.20773C14.8072 10.1198 14.1592 10.8993 13.3278 11.4477C12.4964 11.9961 11.5189 12.2889 10.5189 12.2889C9.17854 12.2874 7.89348 11.761 6.94567 10.8253C5.99786 9.88961 5.4647 8.62097 5.46316 7.29769Z" fill="#73899D"/>
</svg>
