<svg width="24" height="18" viewBox="0 0 24 18" fill="none" xmlns="http://www.w3.org/2000/svg">
<path d="M23.0263 9C23.0263 9.36642 22.8808 9.71783 22.6217 9.97692C22.3626 10.236 22.0112 10.3816 21.6447 10.3816H1.38158C1.01516 10.3816 0.663751 10.236 0.404655 9.97692C0.145559 9.71783 0 9.36642 0 9C0 8.63358 0.145559 8.28217 0.404655 8.02308C0.663751 7.76398 1.01516 7.61842 1.38158 7.61842H21.6447C22.0112 7.61842 22.3626 7.76398 22.6217 8.02308C22.8808 8.28217 23.0263 8.63358 23.0263 9ZM1.38158 3.01316H21.6447C22.0112 3.01316 22.3626 2.8676 22.6217 2.6085C22.8808 2.34941 23.0263 1.998 23.0263 1.63158C23.0263 1.26516 22.8808 0.913751 22.6217 0.654655C22.3626 0.395559 22.0112 0.25 21.6447 0.25H1.38158C1.01516 0.25 0.663751 0.395559 0.404655 0.654655C0.145559 0.913751 0 1.26516 0 1.63158C0 1.998 0.145559 2.34941 0.404655 2.6085C0.663751 2.8676 1.01516 3.01316 1.38158 3.01316ZM21.6447 14.9868H1.38158C1.01516 14.9868 0.663751 15.1324 0.404655 15.3915C0.145559 15.6506 0 16.002 0 16.3684C0 16.7348 0.145559 17.0862 0.404655 17.3453C0.663751 17.6044 1.01516 17.75 1.38158 17.75H21.6447C22.0112 17.75 22.3626 17.6044 22.6217 17.3453C22.8808 17.0862 23.0263 16.7348 23.0263 16.3684C23.0263 16.002 22.8808 15.6506 22.6217 15.3915C22.3626 15.1324 22.0112 14.9868 21.6447 14.9868Z" fill="#73899D"/>
</svg>
